<?xml version="1.0" encoding="UTF-8"?>
<svg xmlns="http://www.w3.org/2000/svg" xmlns:xlink="http://www.w3.org/1999/xlink" width="109pt" height="109pt" viewBox="0 0 109 109" version="1.1">
<g id="surface1">
<path style=" stroke:none;fill-rule:nonzero;fill:rgb(0%,1.568627%,6.666667%);fill-opacity:1;" d="M 75.210938 54.5 C 75.210938 58.113281 72.28125 61.039062 68.671875 61.039062 C 65.058594 61.039062 62.128906 58.113281 62.128906 54.5 C 62.128906 50.886719 65.058594 47.960938 68.671875 47.960938 C 72.28125 47.960938 75.210938 50.886719 75.210938 54.5 Z M 75.210938 54.5 "/>
<path style=" stroke:none;fill-rule:nonzero;fill:rgb(0%,1.568627%,6.666667%);fill-opacity:0.87451;" d="M 69.144531 69.144531 C 66.589844 71.699219 62.449219 71.699219 59.894531 69.144531 C 57.339844 66.589844 57.339844 62.449219 59.894531 59.894531 C 62.449219 57.339844 66.589844 57.339844 69.144531 59.894531 C 71.699219 62.449219 71.699219 66.589844 69.144531 69.144531 Z M 69.144531 69.144531 "/>
<path style=" stroke:none;fill-rule:nonzero;fill:rgb(0%,1.568627%,6.666667%);fill-opacity:0.74902;" d="M 54.5 75.210938 C 50.886719 75.210938 47.960938 72.28125 47.960938 68.671875 C 47.960938 65.058594 50.886719 62.128906 54.5 62.128906 C 58.113281 62.128906 61.039062 65.058594 61.039062 68.671875 C 61.039062 72.28125 58.113281 75.210938 54.5 75.210938 Z M 54.5 75.210938 "/>
<path style=" stroke:none;fill-rule:nonzero;fill:rgb(0%,1.568627%,6.666667%);fill-opacity:0.623529;" d="M 39.855469 69.144531 C 37.300781 66.589844 37.300781 62.449219 39.855469 59.894531 C 42.410156 57.339844 46.550781 57.339844 49.105469 59.894531 C 51.660156 62.449219 51.660156 66.589844 49.105469 69.144531 C 46.550781 71.699219 42.410156 71.699219 39.855469 69.144531 Z M 39.855469 69.144531 "/>
<path style=" stroke:none;fill-rule:nonzero;fill:rgb(0%,1.568627%,6.666667%);fill-opacity:0.501961;" d="M 33.789062 54.5 C 33.789062 50.886719 36.71875 47.960938 40.328125 47.960938 C 43.941406 47.960938 46.871094 50.886719 46.871094 54.5 C 46.871094 58.113281 43.941406 61.039062 40.328125 61.039062 C 36.71875 61.039062 33.789062 58.113281 33.789062 54.5 Z M 33.789062 54.5 "/>
<path style=" stroke:none;fill-rule:nonzero;fill:rgb(0%,1.568627%,6.666667%);fill-opacity:0.376471;" d="M 39.855469 39.855469 C 42.410156 37.300781 46.550781 37.300781 49.105469 39.855469 C 51.660156 42.410156 51.660156 46.550781 49.105469 49.105469 C 46.550781 51.660156 42.410156 51.660156 39.855469 49.105469 C 37.300781 46.550781 37.300781 42.410156 39.855469 39.855469 Z M 39.855469 39.855469 "/>
<path style=" stroke:none;fill-rule:nonzero;fill:rgb(0%,1.568627%,6.666667%);fill-opacity:0.25098;" d="M 54.5 33.789062 C 58.113281 33.789062 61.039062 36.71875 61.039062 40.328125 C 61.039062 43.941406 58.113281 46.871094 54.5 46.871094 C 50.886719 46.871094 47.960938 43.941406 47.960938 40.328125 C 47.960938 36.71875 50.886719 33.789062 54.5 33.789062 Z M 54.5 33.789062 "/>
<path style=" stroke:none;fill-rule:nonzero;fill:rgb(0%,1.568627%,6.666667%);fill-opacity:0.12549;" d="M 69.144531 39.855469 C 71.699219 42.410156 71.699219 46.550781 69.144531 49.105469 C 66.589844 51.660156 62.449219 51.660156 59.894531 49.105469 C 57.339844 46.550781 57.339844 42.410156 59.894531 39.855469 C 62.449219 37.300781 66.589844 37.300781 69.144531 39.855469 Z M 69.144531 39.855469 "/>
</g>
</svg>
