<?xml version="1.0" encoding="utf-8"?><svg xmlns="http://www.w3.org/2000/svg" xmlns:xlink="http://www.w3.org/1999/xlink" width="3000" height="1559" preserveAspectRatio="xMidYMid" viewBox="0 0 3000 1559" style="z-index:1;margin-right:-2px;display:block;background-repeat-y:initial;background-repeat-x:initial;background-color:rgb(1, 44, 50);animation-play-state:paused" ><g transform="" style="animation-play-state:paused" ><path d="M -100 931.31 C -44.85 911.93 -47.81 918.41 3.23 918.41 S 57.8 938.27 106.45 938.27 S 161.71 925.13 209.68 925.13 S 264.36 927.28 312.9 927.28 S 366.06 917.07 416.13 917.07 S 469.7 920.45 519.35 920.45 S 574.2 920.55 622.58 920.55 S 677.75 938.13 725.81 938.13 S 777.63 920.05 829.03 920.05 S 882.19 916.21 932.26 916.21 S 985.68 912.75 1035.48 912.75 S 1090.56 915.88 1138.71 915.88 S 1191.12 914.62 1241.94 914.62 S 1294.83 928.51 1345.16 928.51 S 1398.05 917.6 1448.39 917.6 S 1501.05 906.39 1551.61 906.39 S 1604.01 928.97 1654.84 928.97 S 1708.92 930.06 1758.06 930.06 S 1811.63 937.46 1861.29 937.46 S 1915.81 907.99 1964.52 907.99 S 2018.1 933.01 2067.74 933.01 S 2119.52 942.17 2170.97 942.17 S 2223.44 915.7 2274.19 915.7 S 2325.85 904.34 2377.42 904.34 S 2432.08 934.62 2480.65 934.62 S 2533.73 929.74 2583.87 929.74 S 2639.2 916.06 2687.1 916.06 S 2738.87 940.89 2790.32 940.89 S 2844.31 913.3 2893.55 913.3 S 2948.95 931.12 2996.77 931.12 S 3048.76 908.22 3100 908.22 S 3154.4 926.44 3203.23 926.44 L 3100 1559 L -100 1559 Z" fill="#0f3135" stroke-width="0" transform="matrix(1,0,0,1,0,0)" style="transform:matrix(1, 0, 0, 1, 0, 0);animation-play-state:paused" ></path>
<path d="M -100 962.24 C -45.45 953.13 -45.18 975.96 5.96 975.96 S 61.87 951.51 111.92 951.51 S 168.11 962.14 217.88 962.14 S 272.92 982.05 323.84 982.05 S 378.3 976.12 429.8 976.12 S 486.27 949.6 535.76 949.6 S 591.93 975.14 641.72 975.14 S 695.46 959.49 747.68 959.49 S 803.38 972.9 853.64 972.9 S 908.24 977.92 959.6 977.92 S 1015.42 961.19 1065.56 961.19 S 1118.82 963.11 1171.52 963.11 S 1224.65 971.74 1277.48 971.74 S 1331.46 951.61 1383.44 951.61 S 1439.79 984.04 1489.4 984.04 S 1542.97 965.81 1595.36 965.81 S 1650.9 957.23 1701.32 957.23 S 1756.69 981.67 1807.28 981.67 S 1860.75 974.18 1913.25 974.18 S 1968.27 964.82 2019.21 964.82 S 2072.82 987.3 2125.17 987.3 S 2180.48 981.89 2231.13 981.89 S 2286.53 971.4 2337.09 971.4 S 2392.8 978.72 2443.05 978.72 S 2498.84 981.99 2549.01 981.99 S 2604.07 974.4 2654.97 974.4 S 2709.72 957.72 2760.93 957.72 S 2815.98 947.26 2866.89 947.26 S 2920.37 953.6 2972.85 953.6 S 3027.87 975.86 3078.81 975.86 S 3134.69 973.87 3184.77 973.87 L 3100 1559 L -100 1559 Z" fill="#254346" stroke-width="0" transform="matrix(1,0,0,1,1.1340199708938599,0)" style="transform:matrix(1, 0, 0, 1, 1.13402, 0);animation-play-state:paused" ></path>
<path d="M -100 987.14 C -43.54 993.88 -44.74 989.03 8.84 989.03 S 65.08 1003.75 117.69 1003.75 S 174.03 1009.23 226.53 1009.23 S 284.71 1016.5 335.37 1016.5 S 393.15 1009.09 444.22 1009.09 S 501.88 986.52 553.06 986.52 S 608.42 1002.14 661.9 1002.14 S 718.65 1005.13 770.75 1005.13 S 829.02 996.51 879.59 996.51 S 936.9 1013.68 988.44 1013.68 S 1043.41 1011.64 1097.28 1011.64 S 1154.37 1008.59 1206.12 1008.59 S 1262.43 1029.35 1314.97 1029.35 S 1372.12 1020.7 1423.81 1020.7 S 1480.59 999.93 1532.65 999.93 S 1589.02 990.92 1641.5 990.92 S 1699.27 988.48 1750.34 988.48 S 1808.43 1004.44 1859.18 1004.44 S 1915.43 998.5 1968.03 998.5 S 2024.9 994.65 2076.87 994.65 S 2134.41 1015.64 2185.71 1015.64 S 2240.64 1009.78 2294.56 1009.78 S 2351.2 1016.99 2403.4 1016.99 S 2459.76 1020.14 2512.24 1020.14 S 2567.84 1008 2621.09 1008 S 2676 1018.81 2729.93 1018.81 S 2785.79 1008.15 2838.78 1008.15 S 2896.07 1001.87 2947.62 1001.87 S 3005.77 1000.99 3056.46 1000.99 S 3113.82 986.21 3165.31 986.21 L 3100 1559 L -100 1559 Z" fill="#3b5658" stroke-width="0" transform="matrix(1,0,0,1,3.5863146781921387,0)" style="transform:matrix(1, 0, 0, 1, 3.58631, 0);animation-play-state:paused" ></path>
<path d="M -100 1037.55 C -42.63 1025.32 -43.44 1056.38 11.89 1056.38 S 68.85 1059.9 123.78 1059.9 S 182.64 1046.96 235.66 1046.96 S 292.69 1054 347.55 1054 S 405.47 1073.03 459.44 1073.03 S 516.3 1027.98 571.33 1027.98 S 630.66 1069.69 683.22 1069.69 S 741.79 1059.28 795.1 1059.28 S 852.29 1060.53 906.99 1060.53 S 964.5 1025.03 1018.88 1025.03 S 1078.32 1080.85 1130.77 1080.85 S 1189.48 1047.85 1242.66 1047.85 S 1299.85 1078.34 1354.55 1078.34 S 1410.62 1035.26 1466.43 1035.26 S 1523.79 1044.77 1578.32 1044.77 S 1635.84 1051.53 1690.21 1051.53 S 1749.51 1049.29 1802.1 1049.29 S 1861.42 1055.93 1913.99 1055.93 S 1971.7 1061.52 2025.87 1061.52 S 2083.29 1028.12 2137.76 1028.12 S 2195.31 1059.63 2249.65 1059.63 S 2309.03 1051.61 2361.54 1051.61 S 2419.75 1053.88 2473.43 1053.88 S 2533.11 1045.17 2585.31 1045.17 S 2642.96 1052.74 2697.2 1052.74 S 2753.86 1048.68 2809.09 1048.68 S 2866.11 1057.96 2920.98 1057.96 S 2979.66 1027.19 3032.87 1027.19 S 3092.71 1062.43 3144.76 1062.43 L 3100 1559 L -100 1559 Z" fill="#51696b" stroke-width="0" transform="matrix(1,0,0,1,6.4136857986450195,0)" style="transform:matrix(1, 0, 0, 1, 6.41369, 0);animation-play-state:paused" ></path>
<path d="M -100 1077.7 C -40.19 1075.9 -42.21 1119.01 15.11 1119.01 S 76.4 1083.03 130.22 1083.03 S 188.93 1112.96 245.32 1112.96 S 303.71 1095.56 360.43 1095.56 S 418.66 1103.1 475.54 1103.1 S 534.53 1116.04 590.65 1116.04 S 648.56 1092.44 705.76 1092.44 S 766.66 1094.19 820.86 1094.19 S 879.12 1096.4 935.97 1096.4 S 996.71 1066.32 1051.08 1066.32 S 1109.96 1114.68 1166.19 1114.68 S 1226.39 1079.96 1281.29 1079.96 S 1340.83 1091.85 1396.4 1091.85 S 1456.11 1071.28 1511.51 1071.28 S 1572.05 1114.21 1626.62 1114.21 S 1685.01 1066.38 1741.73 1066.38 S 1802.09 1094.24 1856.83 1094.24 S 1916.45 1065.66 1971.94 1065.66 S 2032.36 1123.56 2087.05 1123.56 S 2145.99 1095.31 2202.16 1095.31 S 2262.56 1083.75 2317.27 1083.75 S 2376.01 1081.73 2432.37 1081.73 S 2491.27 1101.64 2547.48 1101.64 S 2607.51 1115.84 2662.59 1115.84 S 2723.23 1095.08 2777.7 1095.08 S 2835.44 1126.27 2892.81 1126.27 S 2952.03 1092.65 3007.91 1092.65 S 3066.46 1078.07 3123.02 1078.07 L 3100 1559 L -100 1559 Z" fill="#677d7f" stroke-width="0" transform="matrix(1,0,0,1,8.86598014831543,0)" style="transform:matrix(1, 0, 0, 1, 8.86598, 0);animation-play-state:paused" ></path>
<path d="M -100 1099.8 C -37.92 1126.6 -37.26 1145.04 18.52 1145.04 S 79.54 1135.85 137.04 1135.85 S 197.26 1148.41 255.56 1148.41 S 318.53 1102.52 374.07 1102.52 S 437.05 1166.06 492.59 1166.06 S 552.74 1111.82 611.11 1111.82 S 672.59 1149.69 729.63 1149.69 S 792.35 1107.82 848.15 1107.82 S 910.73 1153.42 966.67 1153.42 S 1028.9 1126.3 1085.19 1126.3 S 1144.86 1109.11 1203.7 1109.11 S 1263.13 1113.18 1322.22 1113.18 S 1384.84 1164.6 1440.74 1164.6 S 1501.43 1103.09 1559.26 1103.09 S 1618.7 1156.05 1677.78 1156.05 S 1738.88 1114.53 1796.3 1114.53 S 1858.27 1155.57 1914.81 1155.57 S 1975.73 1119.67 2033.33 1119.67 S 2095.03 1176.17 2151.85 1176.17 S 2213.84 1131.5 2270.37 1131.5 S 2331.56 1143.37 2388.89 1143.37 S 2449.48 1102.07 2507.41 1102.07 S 2568.94 1168.83 2625.93 1168.83 S 2686.17 1117.59 2744.44 1117.59 S 2804.95 1163.57 2862.96 1163.57 S 2924.03 1162.67 2981.48 1162.67 S 3041.64 1156.1 3100 1156.1 S 3161 1127.33 3218.52 1127.33 L 3100 1559 L -100 1559 Z" fill="#7e9193" stroke-width="0" transform="matrix(1,0,0,1,10,0)" style="transform:matrix(1, 0, 0, 1, 10, 0);animation-play-state:paused" ></path>
<path d="M -100 1174.94 C -35.28 1144.77 -35.42 1220.37 22.14 1220.37 S 85.2 1157.2 144.27 1157.2 S 209.19 1187.63 266.41 1187.63 S 329.92 1204.14 388.55 1204.14 S 452.88 1213.04 510.69 1213.04 S 572.63 1173.46 632.82 1173.46 S 695.58 1190.07 754.96 1190.07 S 816.11 1165.53 877.1 1165.53 S 940.71 1218.23 999.24 1218.23 S 1063.46 1156.6 1121.37 1156.6 S 1182.86 1214.38 1243.51 1214.38 S 1308.33 1192.02 1365.65 1192.02 S 1427.57 1195.34 1487.79 1195.34 S 1552.66 1143.37 1609.92 1143.37 S 1673.6 1194.15 1732.06 1194.15 S 1796.14 1163.02 1854.2 1163.02 S 1917.42 1212.04 1976.34 1212.04 S 2039.84 1159.42 2098.47 1159.42 S 2162.78 1196.56 2220.61 1196.56 S 2283.34 1160.46 2342.75 1160.46 S 2405.74 1221.97 2464.89 1221.97 S 2526.3 1154.9 2587.02 1154.9 S 2648.34 1187.05 2709.16 1187.05 S 2772.13 1218.7 2831.3 1218.7 S 2894.25 1174.44 2953.44 1174.44 S 3016.44 1160.39 3075.57 1160.39 S 3138.38 1217.41 3197.71 1217.41 L 3100 1559 L -100 1559 Z" fill="#95a6a7" stroke-width="0" transform="matrix(1,0,0,1,8.86598014831543,0)" style="transform:matrix(1, 0, 0, 1, 8.86598, 0);animation-play-state:paused" ></path>
<path d="M -100 1205.94 C -35.94 1191.63 -36.9 1264.36 25.98 1264.36 S 89.42 1181 151.97 1181 S 215.52 1266.37 277.95 1266.37 S 342.22 1243.43 403.94 1243.43 S 469.97 1243.18 529.92 1243.18 S 595.22 1208.89 655.91 1208.89 S 721.83 1245.64 781.89 1245.64 S 845.38 1189.64 907.87 1189.64 S 973.35 1248.53 1033.86 1248.53 S 1098.75 1237.72 1159.84 1237.72 S 1223.47 1253.31 1285.83 1253.31 S 1350.36 1242.72 1411.81 1242.72 S 1476.85 1240.82 1537.8 1240.82 S 1603.12 1211.07 1663.78 1211.07 S 1730.14 1258.45 1789.76 1258.45 S 1853.77 1190.87 1915.75 1190.87 S 1982.08 1255.95 2041.73 1255.95 S 2104.98 1194.51 2167.72 1194.51 S 2233.63 1263.77 2293.7 1263.77 S 2359.28 1205.71 2419.69 1205.71 S 2483.72 1265.15 2545.67 1265.15 S 2610.63 1201.18 2671.65 1201.18 S 2736.37 1262.89 2797.64 1262.89 S 2864.44 1192.2 2923.62 1192.2 S 2987.03 1186.44 3049.61 1186.44 S 3115.05 1211.98 3175.59 1211.98 L 3100 1559 L -100 1559 Z" fill="#adbcbc" stroke-width="0" transform="matrix(1,0,0,1,6.4136857986450195,0)" style="transform:matrix(1, 0, 0, 1, 6.41369, 0);animation-play-state:paused" ></path>
<path d="M -100 1304.3 C -34.82 1314.37 -33.26 1309.41 30.08 1309.41 S 95.43 1253.79 160.16 1253.79 S 227.95 1287.96 290.24 1287.96 S 357.22 1216.48 420.33 1216.48 S 488.98 1279.45 550.41 1279.45 S 615.83 1250.27 680.49 1250.27 S 748.3 1313.4 810.57 1313.4 S 876.54 1244.96 940.65 1244.96 S 1007.58 1306.64 1070.73 1306.64 S 1139.5 1225.31 1200.81 1225.31 S 1269.55 1252.04 1330.89 1252.04 S 1399.74 1297.23 1460.98 1297.23 S 1528.71 1248.23 1591.06 1248.23 S 1658.76 1227.85 1721.14 1227.85 S 1789.52 1293.32 1851.22 1293.32 S 1918.72 1228.27 1981.3 1228.27 S 2047.64 1301.36 2111.38 1301.36 S 2178.09 1236.59 2241.46 1236.59 S 2308.95 1303.83 2371.54 1303.83 S 2437.08 1281.12 2501.63 1281.12 S 2569.43 1313.73 2631.71 1313.73 S 2698.62 1226.11 2761.79 1226.11 S 2829.3 1278.69 2891.87 1278.69 S 2960.18 1216.36 3021.95 1216.36 S 3090.81 1301.47 3152.03 1301.47 L 3100 1559 L -100 1559 Z" fill="#c6d2d2" stroke-width="0" transform="matrix(1,0,0,1,3.5863142013549805,0)" style="transform:matrix(1, 0, 0, 1, 3.58631, 0);animation-play-state:paused" ></path>
<path d="M -100 1284.76 C -32.01 1279.32 -31.55 1342.59 34.45 1342.59 S 105.57 1360.08 168.91 1360.08 S 238.74 1268.26 303.36 1268.26 S 373.45 1258.48 437.82 1258.48 S 506.74 1263.44 572.27 1263.44 S 639.83 1288.32 706.72 1288.32 S 776.42 1290.72 841.18 1290.72 S 911.8 1281.18 975.63 1281.18 S 1046.23 1361.11 1110.08 1361.11 S 1179.29 1289.7 1244.54 1289.7 S 1315.52 1345.76 1378.99 1345.76 S 1447.2 1330.89 1513.45 1330.89 S 1581.75 1344.27 1647.9 1344.27 S 1718.23 1282.02 1782.35 1282.02 S 1853.24 1329.19 1916.81 1329.19 S 1986.31 1285.21 2051.26 1285.21 S 2121.03 1285.21 2185.71 1285.21 S 2253.41 1277.17 2320.17 1277.17 S 2388.27 1342.25 2454.62 1342.25 S 2524.05 1273.05 2589.08 1273.05 S 2657.47 1350.4 2723.53 1350.4 S 2791.9 1292.85 2857.98 1292.85 S 2926.04 1327.5 2992.44 1327.5 S 3059.95 1272.25 3126.89 1272.25 L 3100 1559 L -100 1559 Z" fill="#dfe8e8" stroke-width="0" transform="matrix(1,0,0,1,1.1340198516845703,0)" style="transform:matrix(1, 0, 0, 1, 1.13402, 0);animation-play-state:paused" ></path></g></svg>