<?xml version="1.0" encoding="utf-8"?><svg xmlns="http://www.w3.org/2000/svg" xmlns:xlink="http://www.w3.org/1999/xlink" width="403" height="1150" preserveAspectRatio="xMidYMid" viewBox="0 0 403 1150" style="z-index:1;margin-right:-2px;display:block;background-repeat-y:initial;background-repeat-x:initial;background-color:rgb(241, 242, 243);animation-play-state:paused" ><g transform="" style="animation-play-state:paused" ><path d="M -100 687.99 C -89.95 689.42 -89.92 687.58 -80.55 687.58 S -68.12 670.51 -61.1 670.51 S -50.9 685.86 -41.65 685.86 S -28.75 673.07 -22.19 673.07 S -11.49 681.83 -2.74 681.83 S 8.85 698.45 16.71 698.45 S 28.16 681.02 36.16 681.02 S 46.45 670.56 55.61 670.56 S 65.81 669 75.06 669 S 87.14 683.22 94.52 683.22 S 104.96 680.83 113.97 680.83 S 125.16 676.99 133.42 676.99 S 145.38 698.53 152.87 698.53 S 164.77 689.23 172.32 689.23 S 184.63 693.64 191.77 693.64 S 202.66 689.46 211.23 689.46 S 222.5 671.68 230.68 671.68 S 241.47 675.54 250.13 675.54 S 261 690.2 269.58 690.2 S 279.46 671.82 289.03 671.82 S 300.52 682.5 308.48 682.5 S 321.2 690.92 327.94 690.92 S 337.84 686.61 347.39 686.61 S 357.14 675.68 366.84 675.68 S 378.47 696.78 386.29 696.78 S 397.16 680.86 405.74 680.86 S 418.65 692.09 425.19 692.09 S 437.28 698.42 444.65 698.42 S 454.6 675.8 464.1 675.8 S 476.48 688.41 483.55 688.41 S 494.07 688.44 503 688.44 S 515.11 672.54 522.45 672.54 L 503 1150 L -100 1150 Z" fill="#1e5cd1" stroke-width="0" transform="matrix(1,0,0,1,0,0)" style="transform:matrix(1, 0, 0, 1, 0, 0);animation-play-state:paused" ></path>
<path d="M -100 704.24 C -88.72 709.71 -89.6 735.7 -79.97 735.7 S -69.71 707.04 -59.95 707.04 S -49.61 733.98 -39.92 733.98 S -28.59 719.43 -19.9 719.43 S -6.79 713.32 0.13 713.32 S 12.77 719.47 20.15 719.47 S 30.46 729.32 40.18 729.32 S 50.85 714.03 60.21 714.03 S 72.16 714.57 80.23 714.57 S 91.06 706.3 100.26 706.3 S 110.82 720.46 120.28 720.46 S 131.65 718.13 140.31 718.13 S 152.99 707.2 160.34 707.2 S 171.04 704.02 180.36 704.02 S 190.44 734.24 200.39 734.24 S 212.74 728.38 220.41 728.38 S 233.09 720.17 240.44 720.17 S 252.71 706.2 260.46 706.2 S 272.91 709.6 280.49 709.6 S 292.89 725.53 300.52 725.53 S 311.45 717.22 320.54 717.22 S 332.99 712.55 340.57 712.55 S 352.73 712.26 360.59 712.26 S 373.1 713.84 380.62 713.84 S 391.1 717.56 400.65 717.56 S 411.58 708.13 420.67 708.13 S 433.44 734.7 440.7 734.7 S 452.85 699.08 460.72 699.08 S 471.29 728.88 480.75 728.88 S 492.48 714.02 500.77 714.02 S 512.04 708.85 520.8 708.85 L 503 1150 L -100 1150 Z" fill="#2869d4" stroke-width="0" transform="matrix(1,0,0,1,1.3625612258911133,0)" style="transform:matrix(1, 0, 0, 1, 1.36256, 0);animation-play-state:paused" ></path>
<path d="M -100 746.86 C -88.97 753.71 -89.47 760.09 -79.37 760.09 S -68 747.62 -58.73 747.62 S -46.37 765.15 -38.1 765.15 S -24.97 737.53 -17.46 737.53 S -7.12 761.53 3.17 761.53 S 14.94 745.9 23.81 745.9 S 34.33 752.76 44.44 752.76 S 55.73 768.13 65.08 768.13 S 75.53 771.07 85.71 771.07 S 99.19 759.2 106.35 759.2 S 117.17 755.42 126.98 755.42 S 138.13 749.36 147.62 749.36 S 160.77 757.6 168.25 757.6 S 178.96 762.14 188.89 762.14 S 200.69 766.13 209.52 766.13 S 220.8 741.57 230.16 741.57 S 242.61 753.08 250.79 753.08 S 261.2 735.11 271.43 735.11 S 282.46 755.42 292.06 755.42 S 304.93 750.62 312.7 750.62 S 323.31 759.26 333.33 759.26 S 346.03 761.79 353.97 761.79 S 364.38 747.86 374.6 747.86 S 386.3 753.26 395.24 753.26 S 407.47 749.75 415.87 749.75 S 428.38 758.44 436.51 758.44 S 449.82 769.97 457.14 769.97 S 467.71 755.28 477.78 755.28 S 490.62 757.87 498.41 757.87 S 511.51 746.01 519.05 746.01 L 503 1150 L -100 1150 Z" fill="#3575d6" stroke-width="0" transform="matrix(1,0,0,1,4.208890914916992,0)" style="transform:matrix(1, 0, 0, 1, 4.20889, 0);animation-play-state:paused" ></path>
<path d="M -100 784.52 C -87.1 787.04 -86.94 788.41 -78.72 788.41 S -67.44 784.43 -57.44 784.43 S -45.9 785.76 -36.15 785.76 S -24.83 783.7 -14.87 783.7 S -2.81 789.49 6.41 789.49 S 17.3 788.46 27.69 788.46 S 39.81 813.49 48.98 813.49 S 62.52 791.25 70.26 791.25 S 82.13 785.89 91.54 785.89 S 105.35 779.77 112.82 779.77 S 124.4 803.37 134.11 803.37 S 146.42 790.17 155.39 790.17 S 166.1 787.38 176.67 787.38 S 187.82 763.29 197.95 763.29 S 208.85 801.2 219.24 801.2 S 230.13 785.48 240.52 785.48 S 254 786.34 261.8 786.34 S 272.75 772.69 283.08 772.69 S 294.93 775.15 304.36 775.15 S 315.31 777.21 325.65 777.21 S 338.28 800.56 346.93 800.56 S 358.13 788.53 368.21 788.53 S 379.93 804.66 389.49 804.66 S 402.71 763.05 410.78 763.05 S 421.75 785.9 432.06 785.9 S 443.59 781.74 453.34 781.74 S 465.76 804.95 474.62 804.95 S 488.29 786.18 495.91 786.18 S 507.17 811.67 517.19 811.67 L 503 1150 L -100 1150 Z" fill="#4381d8" stroke-width="0" transform="matrix(1,0,0,1,7.311387538909912,0)" style="transform:matrix(1, 0, 0, 1, 7.31139, 0);animation-play-state:paused" ></path>
<path d="M -100 810.98 C -86.75 825.49 -87.85 850.48 -78.03 850.48 S -66.74 810.91 -56.06 810.91 S -42.25 846.46 -34.09 846.46 S -20.32 795.85 -12.11 795.85 S -0.9 839.67 9.86 839.67 S 23 808.64 31.83 808.64 S 43.61 851.21 53.8 851.21 S 66.96 806.08 75.77 806.08 S 86.96 844.09 97.74 844.09 S 111.7 808.44 119.72 808.44 S 133.8 826.48 141.69 826.48 S 155.68 805.3 163.66 805.3 S 176.2 798.65 185.63 798.65 S 199.54 854.86 207.6 854.86 S 221.18 849.5 229.57 849.5 S 240.78 802.34 251.55 802.34 S 265.45 832.4 273.52 832.4 S 286.5 815.04 295.49 815.04 S 307.99 795.7 317.46 795.7 S 329.42 801.03 339.43 801.03 S 351.74 838.51 361.4 838.51 S 374.48 798.6 383.38 798.6 S 395.47 837.93 405.35 837.93 S 417.71 810.69 427.32 810.69 S 438.33 833.03 449.29 833.03 S 460.54 795.76 471.26 795.76 S 485.09 829.51 493.23 829.51 S 505.12 805.93 515.21 805.93 L 503 1150 L -100 1150 Z" fill="#528dd9" stroke-width="0" transform="matrix(1,0,0,1,9.608220100402832,0)" style="transform:matrix(1, 0, 0, 1, 9.60822, 0);animation-play-state:paused" ></path>
<path d="M -100 831.82 C -86 838.71 -88.59 865.93 -77.29 865.93 S -65.49 835.19 -54.59 835.19 S -41.32 868.1 -31.88 868.1 S -20.23 845.43 -9.17 845.43 S 3.75 840.64 13.54 840.64 S 26.38 827.18 36.24 827.18 S 50.77 841.67 58.95 841.67 S 72.85 832.37 81.66 832.37 S 94.98 872.8 104.36 872.8 S 116.61 850.15 127.07 850.15 S 140.4 885.99 149.78 885.99 S 162.96 832.57 172.49 832.57 S 185.62 863.59 195.19 863.59 S 207.86 849.66 217.9 849.66 S 229.43 876.38 240.61 876.38 S 252.32 830.54 263.31 830.54 S 276.04 892.57 286.02 892.57 S 298.79 848.25 308.73 848.25 S 320.37 888.6 331.44 888.6 S 345.58 838.26 354.14 838.26 S 367.27 877.69 376.85 877.69 S 389.2 857.11 399.56 857.11 S 412.91 862.95 422.26 862.95 S 433.84 848.04 444.97 848.04 S 459.08 883.88 467.68 883.88 S 479.26 832.81 490.38 832.81 S 504.92 892.08 513.09 892.08 L 503 1150 L -100 1150 Z" fill="#6299da" stroke-width="0" transform="matrix(1,0,0,1,9.608221054077148,0)" style="transform:matrix(1, 0, 0, 1, 9.60822, 0);animation-play-state:paused" ></path>
<path d="M -100 882.07 C -85.3 874.87 -86.34 910.09 -76.51 910.09 S -63.2 884.64 -53.01 884.64 S -38.62 906.29 -29.52 906.29 S -15.21 881.36 -6.03 881.36 S 7.92 929.25 17.47 929.25 S 30.55 886.95 40.96 886.95 S 53.54 870.25 64.45 870.25 S 77.37 871.01 87.95 871.01 S 101 908.14 111.44 908.14 S 123.8 885.65 134.94 885.65 S 147.52 909.43 158.43 909.43 S 173.28 874.51 181.92 874.51 S 195.42 909.31 205.42 909.31 S 219.96 863.48 228.91 863.48 S 243.34 918.04 252.4 918.04 S 265.31 880.41 275.9 880.41 S 290.69 903.82 299.39 903.82 S 313.18 861.59 322.88 861.59 S 337.59 921.56 346.38 921.56 S 359.6 889.19 369.87 889.19 S 382.34 930.26 393.36 930.26 S 406.21 880.07 416.86 880.07 S 431.61 924.48 440.35 924.48 S 454.1 865.23 463.84 865.23 S 478.03 916.71 487.34 916.71 S 501.68 878.11 510.83 878.11 L 503 1150 L -100 1150 Z" fill="#72a4da" stroke-width="0" transform="matrix(1,0,0,1,7.311387062072754,0)" style="transform:matrix(1, 0, 0, 1, 7.31139, 0);animation-play-state:paused" ></path>
<path d="M -100 896.74 C -87.44 902.05 -86.96 957.42 -75.66 957.42 S -60.47 914.51 -51.33 914.51 S -36.81 968.43 -26.99 968.43 S -12.46 900.33 -2.65 900.33 S 10.73 966.87 21.68 966.87 S 36 916.69 46.02 916.69 S 61.25 955 70.35 955 S 85.55 904.32 94.69 904.32 S 109 955.74 119.03 955.74 S 131.58 971.13 143.36 971.13 S 157.89 965.01 167.7 965.01 S 181.82 914.84 192.04 914.84 S 205.69 952.46 216.37 952.46 S 230.55 945.49 240.71 945.49 S 254.14 968.97 265.04 968.97 S 279.25 910.12 289.38 910.12 S 302.26 959.43 313.72 959.43 S 326.04 947.22 338.05 947.22 S 350.81 968.32 362.39 968.32 S 375.39 902.2 386.73 902.2 S 401.81 968.39 411.06 968.39 S 426.14 892.9 435.4 892.9 S 449.25 943.59 459.74 943.59 S 473.52 904.06 484.07 904.06 S 496.45 955.15 508.41 955.15 L 503 1150 L -100 1150 Z" fill="#83afda" stroke-width="0" transform="matrix(1,0,0,1,4.208897590637207,0)" style="transform:matrix(1, 0, 0, 1, 4.2089, 0);animation-play-state:paused" ></path>
<path d="M -100 952.35 C -86.02 929.43 -85.29 1007.29 -74.76 1007.29 S -61.67 934.44 -49.52 934.44 S -35.92 992.24 -24.27 992.24 S -9.43 934.25 0.97 934.25 S 15.63 997.24 26.21 997.24 S 40.22 1001.29 51.45 1001.29 S 65.68 1002.67 76.69 1002.67 S 91.59 953.39 101.93 953.39 S 115.63 1004.44 127.18 1004.44 S 140.16 932.32 152.42 932.32 S 165.41 1002.25 177.66 1002.25 S 191.58 924.1 202.9 924.1 S 217.23 1000.84 228.14 1000.84 S 242.68 939.2 253.39 939.2 S 268.42 934.94 278.63 934.94 S 293.04 948.72 303.87 948.72 S 318.73 997.72 329.11 997.72 S 343.41 934.34 354.35 934.34 S 369.17 993.95 379.6 993.95 S 394.39 929.37 404.84 929.37 S 418.33 982.08 430.08 982.08 S 445.86 950.81 455.32 950.81 S 467.96 986.75 480.56 986.75 S 495.18 935.42 505.8 935.42 L 503 1150 L -100 1150 Z" fill="#95badb" stroke-width="0" transform="matrix(1,0,0,1,1.3625640869140625,0)" style="transform:matrix(1, 0, 0, 1, 1.36256, 0);animation-play-state:paused" ></path></g></svg>